<svg xmlns="http://www.w3.org/2000/svg" xmlns:xlink="http://www.w3.org/1999/xlink" viewBox="0 0 32 32"  version="1.1">
    <title>sprite</title>
    <path d="M11.9551,7.5 C12.1191,7.5 12.2832,7.37695 12.2832,7.17188 L12.2832,6.51562 C12.2832,6.35156 12.1191,6.1875 11.9551,6.1875 L2.11133,6.1875 C1.90625,6.1875 1.7832,6.35156 1.7832,6.51562 L1.7832,7.17188 C1.7832,7.37695 1.90625,7.5 2.11133,7.5 L11.9551,7.5 Z M26.3926,15.375 L25.4082,15.375 L25.4082,10.9453 C25.4082,10.2891 25.1211,9.5918 24.6289,9.09961 L21.1836,5.6543 C20.6914,5.16211 20.0352,4.875 19.3379,4.875 L17.5332,4.875 L17.5332,2.86523 C17.5332,1.79883 16.5898,0.9375 15.4824,0.9375 L5.10547,0.9375 C3.99805,0.9375 3.0957,1.79883 3.0957,2.86523 L3.0957,3.5625 L0.798828,3.5625 C0.59375,3.5625 0.470703,3.72656 0.470703,3.89062 L0.470703,4.54688 C0.470703,4.75195 0.59375,4.875 0.798828,4.875 L10.6426,4.875 C10.8066,4.875 10.9707,4.75195 10.9707,4.54688 L10.9707,3.89062 C10.9707,3.72656 10.8066,3.5625 10.6426,3.5625 L4.4082,3.5625 L4.4082,2.86523 C4.4082,2.53711 4.69531,2.25 5.10547,2.25 L15.4824,2.25 C15.8926,2.25 16.2207,2.53711 16.2207,2.86523 L16.2207,15.375 L8.96094,15.375 C8.38672,14.5957 7.44336,14.0625 6.37695,14.0625 C5.59766,14.0625 4.94141,14.3496 4.4082,14.7598 L4.4082,11.4375 L3.0957,11.4375 L3.0957,17.3438 C3.0957,19.1895 4.53125,20.625 6.37695,20.625 C8.18164,20.625 9.6582,19.1895 9.6582,17.3438 C9.6582,17.1387 9.61719,16.9336 9.57617,16.6875 L17.5742,16.6875 C17.5332,16.9336 17.5332,17.1387 17.5332,17.3438 C17.5332,19.1895 18.9688,20.625 20.8145,20.625 C22.6191,20.625 24.0957,19.1895 24.0957,17.3438 C24.0957,17.1387 24.0547,16.9336 24.0137,16.6875 L26.3926,16.6875 C26.5566,16.6875 26.7207,16.5645 26.7207,16.3594 L26.7207,15.7031 C26.7207,15.5391 26.5566,15.375 26.3926,15.375 Z M6.37695,19.3125 C5.26953,19.3125 4.4082,18.4512 4.4082,17.3438 C4.4082,16.2773 5.26953,15.375 6.37695,15.375 C7.44336,15.375 8.3457,16.2773 8.3457,17.3438 C8.3457,18.4512 7.44336,19.3125 6.37695,19.3125 Z M17.5332,6.1875 L19.3379,6.1875 C19.666,6.1875 19.9941,6.35156 20.2402,6.59766 L23.6855,10.043 C23.7266,10.084 23.7266,10.125 23.7676,10.166 L17.5332,10.166 L17.5332,6.1875 Z M20.8145,19.3125 C19.707,19.3125 18.8457,18.4512 18.8457,17.3438 C18.8457,16.2773 19.707,15.375 20.8145,15.375 C21.8809,15.375 22.7832,16.2773 22.7832,17.3438 C22.7832,18.4512 21.8809,19.3125 20.8145,19.3125 Z M24.0957,15.375 L23.3984,15.375 C22.8242,14.5957 21.8809,14.0625 20.8145,14.0625 C19.748,14.0625 18.8047,14.5957 18.1895,15.375 L17.5332,15.375 L17.5332,11.4375 L24.0957,11.4375 L24.0957,15.375 Z M10.9707,9.79688 L10.9707,9.14062 C10.9707,8.97656 10.8066,8.8125 10.6426,8.8125 L0.798828,8.8125 C0.59375,8.8125 0.470703,8.97656 0.470703,9.14062 L0.470703,9.79688 C0.470703,10.002 0.59375,10.125 0.798828,10.125 L10.6426,10.125 C10.8066,10.125 10.9707,10.002 10.9707,9.79688 Z"/>
    
</svg>