<?xml version="1.0" encoding="utf-8"?>
<!-- Generator: Adobe Illustrator 23.0.2, SVG Export Plug-In . SVG Version: 6.00 Build 0)  -->
<svg version="1.1" id="Layer_1" xmlns="http://www.w3.org/2000/svg" xmlns:xlink="http://www.w3.org/1999/xlink" x="0px" y="0px"
	 viewBox="0 0 124 56.7" style="enable-background:new 0 0 124 56.7;" xml:space="preserve">
<style type="text/css">
	.st0{fill:#253B80;}
	.st1{fill:#179BD7;}
</style>
<path class="st0" d="M20.4,22.5H12c-0.6,0-1.1,0.4-1.2,1L7.4,45.1c-0.1,0.4,0.2,0.7,0.6,0.8c0,0,0.1,0,0.1,0h4c0.6,0,1.1-0.4,1.2-1
	l0.9-5.8c0.1-0.6,0.6-1,1.2-1H18c5.5,0,8.7-2.7,9.6-8c0.4-2.3,0-4.1-1.1-5.4C25.3,23.3,23.2,22.5,20.4,22.5z M21.3,30.4
	c-0.5,3-2.8,3-5,3h-1.3l0.9-5.6c0.1-0.3,0.3-0.6,0.7-0.6h0.6c1.5,0,3,0,3.7,0.9C21.4,28.6,21.5,29.3,21.3,30.4z M45.5,30.3h-4
	c-0.3,0-0.6,0.3-0.7,0.6L40.6,32l-0.3-0.4c-0.9-1.3-2.8-1.7-4.8-1.7c-4.4,0-8.2,3.4-9,8.1c-0.4,2.4,0.2,4.6,1.5,6.2
	c1.2,1.4,3,2,5.1,2c3.6,0,5.6-2.3,5.6-2.3l-0.2,1.1c-0.1,0.4,0.2,0.7,0.6,0.8c0,0,0.1,0,0.1,0h3.6c0.6,0,1.1-0.4,1.2-1l2.2-13.8
	c0.1-0.4-0.2-0.7-0.6-0.8C45.6,30.3,45.5,30.3,45.5,30.3z M39.9,38.1c-0.4,2.3-2.2,3.8-4.5,3.8c-1.2,0-2.1-0.4-2.7-1.1
	c-0.6-0.7-0.8-1.7-0.6-2.8c0.4-2.3,2.2-3.9,4.5-3.9c1.1,0,2.1,0.4,2.7,1.1C39.8,36,40.1,37,39.9,38.1z M66.9,30.3h-4
	c-0.4,0-0.7,0.2-1,0.5L56.4,39L54,31.1c-0.1-0.5-0.6-0.8-1.1-0.8h-4c-0.4,0-0.7,0.3-0.7,0.7c0,0.1,0,0.2,0,0.2l4.5,13.1l-4.2,5.9
	c-0.2,0.3-0.1,0.8,0.2,1c0.1,0.1,0.3,0.1,0.4,0.1h4c0.4,0,0.7-0.2,1-0.5l13.5-19.4c0.2-0.3,0.1-0.8-0.2-1
	C67.2,30.3,67.1,30.3,66.9,30.3L66.9,30.3z"/>
<path class="st1" d="M80.3,22.5h-8.4c-0.6,0-1.1,0.4-1.2,1l-3.4,21.6c-0.1,0.4,0.2,0.7,0.6,0.8c0,0,0.1,0,0.1,0h4.3
	c0.4,0,0.7-0.3,0.8-0.7l1-6.1c0.1-0.6,0.6-1,1.2-1H78c5.5,0,8.7-2.7,9.6-8c0.4-2.3,0-4.1-1.1-5.4C85.3,23.3,83.2,22.5,80.3,22.5z
	 M81.3,30.4c-0.5,3-2.8,3-5,3H75l0.9-5.6c0.1-0.3,0.3-0.6,0.7-0.6h0.6c1.5,0,3,0,3.7,0.9C81.3,28.6,81.5,29.3,81.3,30.4z
	 M105.5,30.3h-4c-0.3,0-0.6,0.3-0.7,0.6l-0.2,1.1l-0.3-0.4c-0.9-1.3-2.8-1.7-4.8-1.7c-4.4,0-8.2,3.4-9,8.1c-0.4,2.4,0.2,4.6,1.5,6.2
	c1.2,1.4,3,2,5.1,2c3.6,0,5.6-2.3,5.6-2.3l-0.2,1.1c-0.1,0.4,0.2,0.7,0.6,0.8c0,0,0.1,0,0.1,0h3.6c0.6,0,1.1-0.4,1.2-1l2.2-13.8
	c0.1-0.4-0.2-0.7-0.6-0.8C105.5,30.3,105.5,30.3,105.5,30.3z M99.9,38.1c-0.4,2.3-2.2,3.8-4.5,3.8c-1.2,0-2.1-0.4-2.7-1.1
	c-0.6-0.7-0.8-1.7-0.6-2.8c0.4-2.3,2.2-3.9,4.5-3.9c1.1,0,2.1,0.4,2.7,1.1C99.8,36,100,37,99.9,38.1z M110.2,23.1l-3.5,22
	c-0.1,0.4,0.2,0.7,0.6,0.8c0,0,0.1,0,0.1,0h3.5c0.6,0,1.1-0.4,1.2-1l3.4-21.6c0.1-0.4-0.2-0.7-0.6-0.8c0,0-0.1,0-0.1,0h-3.9
	C110.6,22.5,110.3,22.8,110.2,23.1z"/>
<g>
	<path class="st0" d="M13,13.1c0.1-0.6-0.2-1-0.9-1.3l-0.5-0.2c-0.9-0.3-1.5-0.7-1.9-1.1S9.2,9.6,9.2,9.1c0-0.5,0.2-0.9,0.5-1.3
		c0.3-0.4,0.7-0.7,1.2-0.9s1-0.3,1.6-0.3c0.5,0,1,0.1,1.4,0.3s0.7,0.5,0.9,0.9c0.2,0.4,0.3,0.8,0.3,1.3l-1.4,0c0-0.4-0.1-0.8-0.3-1
		c-0.2-0.2-0.6-0.4-1-0.4c-0.5,0-0.8,0.1-1.2,0.3c-0.3,0.2-0.5,0.5-0.6,0.9c-0.1,0.5,0.3,0.9,1,1.2l0.4,0.2c0.9,0.3,1.5,0.7,1.9,1.1
		s0.5,0.9,0.5,1.5c0,0.5-0.2,0.9-0.5,1.3s-0.7,0.6-1.2,0.8s-1,0.3-1.6,0.3c-0.6,0-1.1-0.1-1.5-0.4s-0.8-0.5-1-1s-0.4-0.9-0.3-1.4
		l1.4,0c0,0.5,0.1,0.9,0.4,1.1s0.7,0.4,1.2,0.4c0.5,0,0.9-0.1,1.2-0.3S12.9,13.4,13,13.1z"/>
	<path class="st0" d="M18.1,15.4c-0.6,0-1-0.2-1.4-0.4s-0.7-0.6-0.9-1.1s-0.3-1-0.2-1.5l0-0.2c0.1-0.6,0.3-1.2,0.6-1.7
		s0.7-0.9,1.1-1.2s1-0.4,1.5-0.4c0.8,0,1.4,0.3,1.8,0.9S21.1,11,21,12l-0.1,0.6h-4c0,0.5,0.1,0.9,0.3,1.2c0.2,0.3,0.6,0.5,1,0.5
		c0.6,0,1.1-0.2,1.7-0.8l0.7,0.7c-0.3,0.4-0.6,0.7-1,0.9S18.6,15.4,18.1,15.4z M18.7,10c-0.7,0-1.3,0.5-1.7,1.6l2.6,0l0-0.1
		c0-0.2,0-0.4,0-0.5c0-0.3-0.2-0.5-0.3-0.7S19,10,18.7,10z"/>
	<path class="st0" d="M24.3,14.3c0.3,0,0.6-0.1,0.9-0.3s0.4-0.5,0.5-0.8l1.3,0c0,0.4-0.2,0.8-0.5,1.1s-0.6,0.6-1,0.8
		s-0.8,0.3-1.3,0.3c-0.5,0-1-0.1-1.4-0.4s-0.7-0.7-0.8-1.1s-0.2-1-0.2-1.6l0-0.2c0.1-0.6,0.2-1.2,0.5-1.7s0.7-0.9,1.1-1.2
		s1-0.4,1.5-0.4c0.7,0,1.2,0.2,1.6,0.7s0.6,1,0.6,1.7H26c0-0.4-0.1-0.7-0.3-0.9S25.3,10,25,10c-0.5,0-1,0.2-1.3,0.7s-0.5,1.1-0.5,2
		C23.2,13.7,23.6,14.3,24.3,14.3z"/>
	<path class="st0" d="M31.6,14.7c-0.5,0.5-1.1,0.8-1.8,0.7c-0.4,0-0.8-0.1-1-0.3s-0.5-0.5-0.6-0.8s-0.1-0.8-0.1-1.2L28.8,9h1.4
		l-0.7,4.1c0,0.1,0,0.3,0,0.4c0,0.5,0.3,0.7,0.7,0.8c0.6,0,1.1-0.2,1.5-0.7L32.5,9h1.4l-1.1,6.3h-1.3L31.6,14.7z"/>
	<path class="st0" d="M38.4,10.3c-0.2,0-0.4-0.1-0.5-0.1c-0.6,0-1.1,0.2-1.5,0.8l-0.8,4.3h-1.4L35.3,9l1.3,0l-0.1,0.7
		c0.4-0.6,0.9-0.9,1.5-0.8c0.1,0,0.3,0,0.5,0.1L38.4,10.3z"/>
	<path class="st0" d="M41.1,15.4c-0.6,0-1-0.2-1.4-0.4s-0.7-0.6-0.9-1.1s-0.3-1-0.2-1.5l0-0.2c0.1-0.6,0.3-1.2,0.6-1.7
		s0.7-0.9,1.1-1.2s1-0.4,1.5-0.4c0.8,0,1.4,0.3,1.8,0.9C44,10.3,44.1,11,44,12l-0.1,0.6h-4c0,0.5,0.1,0.9,0.3,1.2
		c0.2,0.3,0.6,0.5,1,0.5c0.6,0,1.1-0.2,1.7-0.8l0.7,0.7c-0.3,0.4-0.6,0.7-1,0.9S41.6,15.4,41.1,15.4z M41.7,10
		c-0.7,0-1.3,0.5-1.7,1.6l2.6,0l0-0.1c0-0.2,0-0.4,0-0.5c0-0.3-0.2-0.5-0.3-0.7S42,10,41.7,10z"/>
	<path class="st0" d="M49.7,12.1l-0.6,3.2h-1.4l1.5-8.5l3,0c0.9,0,1.6,0.2,2.1,0.7s0.7,1.1,0.7,1.9c-0.1,0.8-0.4,1.5-1,2
		c-0.6,0.5-1.4,0.7-2.4,0.7L49.7,12.1z M49.9,10.9l1.7,0c0.5,0,1-0.1,1.3-0.4s0.5-0.6,0.6-1.1c0.1-0.4,0-0.8-0.2-1S52.6,8,52.2,8
		l-1.8,0L49.9,10.9z"/>
	<path class="st0" d="M58.7,15.3c0-0.2-0.1-0.4-0.1-0.6c-0.5,0.5-1.1,0.7-1.7,0.7c-0.6,0-1-0.2-1.4-0.5s-0.5-0.8-0.5-1.3
		c0-0.7,0.3-1.2,0.9-1.6s1.3-0.6,2.2-0.6l0.9,0l0.1-0.4c0-0.2,0-0.3,0-0.4c-0.1-0.4-0.4-0.6-0.8-0.7c-0.3,0-0.6,0.1-0.8,0.2
		s-0.4,0.4-0.4,0.6l-1.4,0c0-0.4,0.2-0.7,0.4-1s0.6-0.5,1-0.7s0.9-0.2,1.3-0.2c0.7,0,1.2,0.2,1.6,0.6s0.5,0.9,0.5,1.6l-0.5,3l0,0.5
		c0,0.2,0,0.5,0.1,0.7l0,0.1H58.7z M57.3,14.3c0.3,0,0.6-0.1,0.8-0.2s0.5-0.3,0.6-0.6l0.2-1.2l-0.7,0c-0.5,0-0.9,0.1-1.3,0.3
		s-0.5,0.5-0.5,0.8c0,0.3,0,0.5,0.2,0.6S57,14.3,57.3,14.3z"/>
	<path class="st0" d="M63.7,13.2l2-4.3h1.5l-3.8,7.4c-0.5,1-1.2,1.5-2.1,1.5c-0.2,0-0.5,0-0.7-0.1l0.1-1.1l0.3,0
		c0.3,0,0.6-0.1,0.8-0.2s0.4-0.4,0.6-0.6l0.3-0.7L61.7,9h1.4L63.7,13.2z"/>
	<path class="st0" d="M69.3,8.9l-0.1,0.7c0.5-0.5,1.1-0.8,1.9-0.8c0.4,0,0.7,0.1,1,0.3s0.4,0.4,0.5,0.7c0.6-0.7,1.3-1,2-1
		c0.6,0,1.1,0.2,1.4,0.6s0.4,1,0.3,1.7l-0.7,4.1h-1.4l0.7-4.1c0-0.2,0-0.3,0-0.5c-0.1-0.5-0.4-0.7-0.9-0.7c-0.6,0-1,0.3-1.4,0.9
		l0,0.1L72,15.3h-1.4l0.7-4.1c0-0.2,0-0.3,0-0.5C71.3,10.3,71,10,70.4,10c-0.5,0-1,0.2-1.3,0.7l-0.8,4.6H67L68,9L69.3,8.9z"/>
	<path class="st0" d="M80,15.4c-0.6,0-1-0.2-1.4-0.4s-0.7-0.6-0.9-1.1s-0.3-1-0.2-1.5l0-0.2c0.1-0.6,0.3-1.2,0.6-1.7
		s0.7-0.9,1.1-1.2s1-0.4,1.5-0.4c0.8,0,1.4,0.3,1.8,0.9S83,11,82.9,12l-0.1,0.6h-4c0,0.5,0.1,0.9,0.3,1.2c0.2,0.3,0.6,0.5,1,0.5
		c0.6,0,1.1-0.2,1.7-0.8l0.7,0.7c-0.3,0.4-0.6,0.7-1,0.9S80.5,15.4,80,15.4z M80.6,10c-0.7,0-1.3,0.5-1.7,1.6l2.6,0l0-0.1
		c0-0.2,0-0.4,0-0.5c0-0.3-0.2-0.5-0.3-0.7S80.9,10,80.6,10z"/>
	<path class="st0" d="M85.8,8.9l-0.1,0.7c0.5-0.6,1.2-0.9,1.9-0.9c0.6,0,1,0.2,1.3,0.6s0.4,1,0.3,1.7l-0.7,4.1h-1.4l0.7-4.1
		c0-0.2,0-0.3,0-0.5C87.8,10.2,87.5,10,87,10c-0.5,0-1,0.3-1.4,0.8l-0.8,4.5h-1.4L84.5,9L85.8,8.9z"/>
	<path class="st0" d="M93.1,7.4L92.8,9h1.1L93.7,10h-1.1L92,13.6c0,0.1,0,0.2,0,0.3c0,0.3,0.2,0.4,0.5,0.4c0.1,0,0.3,0,0.5-0.1
		l-0.1,1.1c-0.3,0.1-0.6,0.1-0.9,0.1c-0.5,0-0.8-0.2-1.1-0.5s-0.3-0.7-0.3-1.3l0.6-3.6h-1L90.4,9h1l0.3-1.5H93.1z"/>
	<path class="st0" d="M97.7,13.5c0.1-0.4-0.2-0.7-0.8-0.8s-1-0.3-1.2-0.4c-0.8-0.3-1.2-0.9-1.2-1.6c0-0.6,0.3-1,0.8-1.4
		s1.1-0.6,1.8-0.5c0.7,0,1.2,0.2,1.6,0.6s0.6,0.9,0.6,1.5l-1.4,0c0-0.3-0.1-0.5-0.2-0.7s-0.4-0.3-0.7-0.3c-0.3,0-0.6,0.1-0.8,0.2
		S96,10.5,96,10.7c-0.1,0.4,0.2,0.6,0.8,0.7s1,0.3,1.2,0.4c0.8,0.3,1.1,0.9,1.1,1.6c0,0.4-0.2,0.8-0.4,1.1s-0.6,0.5-1,0.7
		s-0.8,0.2-1.3,0.2c-0.7,0-1.3-0.2-1.7-0.6S94,13.9,94,13.3l1.3,0c0,0.3,0.1,0.6,0.3,0.8s0.5,0.3,0.8,0.3c0.3,0,0.6-0.1,0.9-0.2
		S97.7,13.8,97.7,13.5z"/>
	<path class="st0" d="M108.9,12.2c-0.1,0.6-0.3,1.2-0.5,1.7s-0.6,0.9-1,1.2s-0.8,0.4-1.3,0.4c-0.7,0-1.2-0.3-1.6-0.8l-0.2,0.7h-1.3
		l1.6-9h1.4l-0.6,3.3c0.5-0.5,1-0.7,1.7-0.7c0.6,0,1.1,0.2,1.4,0.7s0.5,1,0.5,1.8C108.9,11.5,108.9,11.8,108.9,12.2z M107.5,11.4
		c0-0.4-0.1-0.8-0.3-1s-0.4-0.4-0.8-0.4c-0.6,0-1,0.3-1.4,0.8l-0.5,2.6c0.2,0.5,0.5,0.8,1.1,0.8c0.5,0,0.9-0.2,1.2-0.5
		s0.5-0.9,0.6-1.6C107.5,11.8,107.5,11.6,107.5,11.4z"/>
	<path class="st0" d="M112,13.2l2-4.3h1.5l-3.8,7.4c-0.5,1-1.2,1.5-2.1,1.5c-0.2,0-0.5,0-0.7-0.1l0.1-1.1l0.3,0
		c0.3,0,0.6-0.1,0.8-0.2s0.4-0.4,0.6-0.6l0.3-0.7L110,9h1.4L112,13.2z"/>
</g>
</svg>
